<svg xmlns="http://www.w3.org/2000/svg" role="img" viewBox="0 0 84 96">
    <title>Logo</title>
    <g id="Logo" transform="translate(-8.000000, -2.000000)">
    <g transform="translate(11.000000, 5.000000)">
        {/* <path
          d="M45.691667,45.15 C48.591667,46.1 50.691667,48.95 50.691667,52.2 C50.691667,57.95 46.691667,61 40.291667,61 L28.541667,61 L28.541667,30.3 L39.291667,30.3 C45.691667,30.3 49.691667,33.15 49.691667,38.65 C49.691667,41.95 47.941667,44.35 45.691667,45.15 Z M33.591667,43.2 L39.241667,43.2 C42.791667,43.2 44.691667,41.85 44.691667,38.95 C44.691667,36.05 42.791667,34.8 39.241667,34.8 L33.591667,34.8 L33.591667,43.2 Z M33.591667,47.5 L33.591667,56.5 L40.191667,56.5 C43.691667,56.5 45.591667,54.75 45.591667,52 C45.591667,49.2 43.691667,47.5 40.191667,47.5 L33.591667,47.5 Z"
          fill="#64FFDA"
        /> */}
        <path
          d="M 0.5 62.7 L 0 61.7 Q 0.094 61.139 0.362 59.001 A 437.796 437.796 0 0 0 0.4 58.7 Q 0.7 56.3 0.95 52.45 A 119.763 119.763 0 0 0 1.176 46.944 A 140.794 140.794 0 0 0 1.2 44.3 L 5.7 43.8 Q 5.7 51.3 6.7 54.9 A 9.961 9.961 0 0 0 7.582 57.098 A 6.549 6.549 0 0 0 10.4 59.85 A 9.969 9.969 0 0 0 12.371 60.562 Q 14.402 61.085 17.354 61.179 A 42.126 42.126 0 0 0 18.7 61.2 Q 23.847 61.2 27.326 59.231 A 12.208 12.208 0 0 0 28.8 58.25 A 9.454 9.454 0 0 0 32.548 51.366 A 12.743 12.743 0 0 0 32.6 50.2 A 8.08 8.08 0 0 0 30.614 44.875 A 10.156 10.156 0 0 0 30.55 44.8 Q 28.5 42.4 25.7 40.7 Q 23.556 39.399 19.83 37.394 A 328.987 328.987 0 0 0 17.4 36.1 A 119.588 119.588 0 0 1 13.785 34.148 Q 12.113 33.206 10.704 32.325 A 54.112 54.112 0 0 1 8.9 31.15 Q 5.6 28.9 3.35 25.8 A 11.823 11.823 0 0 1 1.109 19.117 A 14.605 14.605 0 0 1 1.1 18.6 Q 1.1 13.4 4.15 9.15 A 20.101 20.101 0 0 1 10.483 3.476 A 24.69 24.69 0 0 1 12.45 2.45 A 26.339 26.339 0 0 1 21.547 0.101 A 31.724 31.724 0 0 1 24.1 0 A 51.249 51.249 0 0 1 28.41 0.174 A 40.927 40.927 0 0 1 31.5 0.55 A 71.609 71.609 0 0 1 33.488 0.899 Q 35.39 1.262 36.714 1.645 A 20.221 20.221 0 0 1 36.9 1.7 A 146.401 146.401 0 0 1 37.597 1.911 Q 38.883 2.304 39.33 2.473 A 4.061 4.061 0 0 1 39.4 2.5 L 39.7 3.1 A 43.61 43.61 0 0 1 39.652 3.381 Q 39.525 4.113 39.2 5.9 A 63.626 63.626 0 0 0 38.994 7.106 Q 38.775 8.46 38.529 10.265 A 225.99 225.99 0 0 0 38.3 12 Q 37.8 15.9 37.5 20 L 33.6 20.4 L 33 19.9 Q 33.1 19.5 33.2 18.05 A 39.194 39.194 0 0 0 33.268 16.695 Q 33.3 15.769 33.3 14.7 Q 33.3 9.53 30.826 7.5 A 5.122 5.122 0 0 0 30.7 7.4 Q 28.1 5.4 21.4 5.4 A 18.071 18.071 0 0 0 17.401 5.82 A 12.72 12.72 0 0 0 12.35 8.15 A 9.971 9.971 0 0 0 10.187 10.402 A 7.976 7.976 0 0 0 8.8 15 Q 8.8 19 12.25 21.95 Q 15.542 24.765 21.795 28.082 A 109.175 109.175 0 0 0 22.4 28.4 Q 27.757 31.12 31.009 33.059 A 57.959 57.959 0 0 1 32.3 33.85 Q 35.7 36 38.3 39.2 Q 40.9 42.4 40.9 46.6 Q 40.9 52.2 37.75 56.65 A 19.914 19.914 0 0 1 31.49 62.321 A 25.014 25.014 0 0 1 29 63.6 A 28.408 28.408 0 0 1 21.375 65.749 A 36.786 36.786 0 0 1 16.2 66.1 A 40.948 40.948 0 0 1 11.726 65.866 A 32.196 32.196 0 0 1 8.5 65.35 A 51.905 51.905 0 0 1 6.098 64.779 Q 5.016 64.492 4.092 64.187 A 23.405 23.405 0 0 1 2.75 63.7 Q 0.711 62.884 0.52 62.726 A 0.044 0.044 0 0 1 0.5 62.7 Z"
          fill="#64FFDA"
          // vector-effect="non-scaling-stroke"
        />

        <polygon
          id="Shape"
          stroke="#64FFDA"
          strokeWidth="5"
          strokeLinecap="round"
          strokeLinejoin="round"
          points="39 0 0 22 0 67 39 90 78 68 78 23"></polygon>
      </g>
    </g>
  </svg>